<svg width="49.946503" height="49.999939" viewBox="0 0 49.9465 49.9999" fill="none" xmlns="http://www.w3.org/2000/svg" xmlns:xlink="http://www.w3.org/1999/xlink">
	<desc>
			Created with Pixso.
	</desc>
	<defs/>
	<path d="M48.51 20.96L40.27 29.2L35.56 24.49L39.12 20.96C39.4 20.63 39.38 20.13 39.08 19.83C38.77 19.52 38.28 19.5 37.95 19.78L34.38 23.31L32.03 20.95L40.27 12.71C40.59 12.38 40.59 11.86 40.27 11.53C39.94 11.21 39.42 11.21 39.09 11.53L30.26 20.37C30.1 20.52 30.01 20.74 30.01 20.96C30.01 21.18 30.1 21.39 30.26 21.55L31.44 22.72L30.26 23.9C28.86 22.51 26.67 22.28 25.02 23.37L24.38 22.72C23.6 21.94 22.54 21.51 21.44 21.51C20.92 21.51 20.4 21.6 19.91 21.79L18.49 20.37L19.08 19.78C19.24 19.63 19.33 19.41 19.33 19.19C19.33 18.97 19.24 18.76 19.08 18.6L10.81 10.36C10.49 10.04 9.96 10.04 9.64 10.36C9.31 10.69 9.31 11.22 9.64 11.54L17.29 19.19L16.7 19.78L12.54 23.9L9.6 20.95C9.44 20.79 9.23 20.7 9.01 20.7C8.79 20.7 8.57 20.79 8.42 20.95C8.09 21.27 8.09 21.8 8.42 22.12L11.36 25.07L10.18 26.24L9.07 27.47L1.42 19.78C1.27 19.63 1.05 19.54 0.83 19.54C0.61 19.54 0.4 19.63 0.24 19.78C-0.08 20.11 -0.08 20.63 0.24 20.96L8.48 29.2C8.64 29.36 8.85 29.44 9.07 29.44C9.3 29.44 9.51 29.36 9.67 29.2L10.81 28.03L11.99 29.2C10.36 30.82 10.36 33.46 11.99 35.09L13.55 36.63C13.71 36.78 13.92 36.87 14.14 36.87C14.37 36.87 14.58 36.78 14.73 36.63C15.06 36.3 15.06 35.78 14.73 35.45L13.19 33.91C12.72 33.44 12.46 32.81 12.46 32.14C12.46 31.48 12.72 30.84 13.19 30.37L13.78 29.79L19.67 23.9C20.66 22.96 22.21 22.96 23.2 23.9L28.5 29.19C28.78 29.52 28.76 30.01 28.45 30.32C28.14 30.63 27.65 30.65 27.32 30.36L23.48 26.53C23.16 26.2 22.62 26.2 22.3 26.53C21.97 26.86 21.97 27.39 22.3 27.72L26.14 31.56C26.85 32.27 27.93 32.49 28.87 32.1C29.8 31.72 30.41 30.8 30.41 29.79C30.41 29.13 30.15 28.49 29.68 28.03L26.25 24.6C27.2 24.16 28.33 24.35 29.09 25.08L36.16 32.15C36.62 32.62 36.88 33.25 36.88 33.91C36.88 34.57 36.62 35.21 36.16 35.68L33.8 38.03L31.39 40.44L29.68 42.15L24.97 46.86C24.64 47.19 24.12 47.19 23.79 46.86C23.47 46.54 23.47 46.02 23.79 45.69L29.13 40.38C29.37 40.18 29.47 39.86 29.4 39.55C29.32 39.25 29.09 39.01 28.78 38.94C28.48 38.86 28.16 38.97 27.95 39.21L22.65 44.5C22.32 44.78 21.83 44.76 21.52 44.46C21.21 44.15 21.2 43.66 21.48 43.33L26.77 38.03C26.93 37.88 27.02 37.66 27.02 37.44C27.02 37.22 26.93 37.01 26.77 36.85C26.45 36.53 25.92 36.53 25.6 36.85L20.3 42.15C19.97 42.48 19.45 42.48 19.12 42.15C18.96 42 18.88 41.78 18.88 41.56C18.88 41.34 18.96 41.13 19.12 40.97L24.42 35.68C24.57 35.52 24.66 35.31 24.66 35.09C24.66 34.86 24.57 34.65 24.42 34.49C24.09 34.17 23.57 34.17 23.24 34.49L17.94 39.8C17.61 40.12 17.09 40.12 16.76 39.79C16.44 39.47 16.44 38.94 16.77 38.62L23.17 32.22C23.49 31.89 23.49 31.37 23.17 31.04C22.84 30.71 22.31 30.71 21.99 31.04L15.55 37.46C14.58 38.43 14.58 40.01 15.55 40.99C15.98 41.43 16.56 41.69 17.17 41.72C17.25 42.99 18.26 44 19.53 44.07C19.6 45.34 20.62 46.35 21.89 46.42C21.91 47.05 22.17 47.64 22.61 48.09C23.36 48.84 24.5 49.03 25.46 48.57L26.14 49.26C26.84 49.96 27.89 50.18 28.82 49.82C29.74 49.46 30.36 48.59 30.4 47.6C31.03 47.58 31.63 47.32 32.07 46.87C32.5 46.44 32.76 45.86 32.79 45.25C34.06 45.18 35.08 44.16 35.15 42.89C36.14 42.85 37.01 42.23 37.37 41.31C37.74 40.38 37.51 39.33 36.81 38.63L36.22 38.05L37.4 36.87C38.18 36.09 38.62 35.03 38.62 33.93C38.6 33.1 38.34 32.3 37.86 31.63L39.12 30.37L39.71 30.96C40.03 31.29 40.56 31.29 40.88 30.96L49.69 22.13C50.01 21.81 50.01 21.28 49.69 20.96C49.54 20.8 49.32 20.71 49.1 20.71C48.88 20.71 48.67 20.8 48.51 20.96ZM12.01 26.84L17.32 21.55L18.49 22.72L13.19 28.03L12.01 26.84ZM28.5 48.04C28.17 48.36 27.65 48.36 27.32 48.04L26.73 47.45L27.91 46.27L28.5 46.86C28.65 47.01 28.74 47.23 28.74 47.45C28.74 47.67 28.65 47.88 28.5 48.04ZM30.85 45.68C30.53 46.01 30 46.01 29.68 45.68L29.13 45.09L29.72 44.5L30.3 43.92L30.89 44.5C31.05 44.66 31.14 44.87 31.14 45.09C31.14 45.31 31.05 45.53 30.89 45.68L30.85 45.68ZM33.21 43.33C32.88 43.65 32.36 43.65 32.03 43.33L31.44 42.74L32.62 41.56L33.21 42.15C33.53 42.48 33.53 43 33.21 43.33ZM35.56 40.97C35.41 41.13 35.2 41.22 34.97 41.22C34.75 41.22 34.54 41.13 34.38 40.97L33.8 40.38L34.96 39.21L35.55 39.8C35.87 40.12 35.88 40.64 35.56 40.97ZM36.74 30.37L31.44 25.08L32.62 23.9L37.92 29.2L36.74 30.37Z" fill="#FFBB01" fill-opacity="1.000000" fill-rule="nonzero"/>
	<path d="M15.81 13.32L34.12 13.32C34.58 13.32 34.96 12.94 34.96 12.48L34.96 0.83C34.96 0.37 34.58 0 34.12 0L15.81 0C15.35 0 14.98 0.37 14.98 0.83L14.98 12.48C14.98 12.94 15.35 13.32 15.81 13.32ZM16.64 9.99C17.56 9.99 18.31 10.73 18.31 11.65L16.64 11.65L16.64 9.99ZM33.29 11.65L31.63 11.65C31.63 10.73 32.37 9.99 33.29 9.99L33.29 11.65ZM33.29 3.33C32.37 3.33 31.63 2.58 31.63 1.66L33.29 1.66L33.29 3.33ZM33.29 4.99L33.29 8.32C31.45 8.32 29.96 9.81 29.96 11.65L19.97 11.65C19.97 9.81 18.48 8.32 16.64 8.32L16.64 4.99C18.48 4.99 19.97 3.5 19.97 1.66L29.96 1.66C29.96 3.5 31.45 4.99 33.29 4.99ZM16.64 1.66L18.31 1.66C18.31 2.58 17.56 3.33 16.64 3.33L16.64 1.66Z" fill="#FFBB01" fill-opacity="1.000000" fill-rule="nonzero"/>
	<path d="M24.97 9.99C26.81 9.99 28.3 8.49 28.3 6.66C28.3 4.82 26.81 3.33 24.97 3.33C23.13 3.33 21.64 4.82 21.64 6.66C21.64 8.49 23.13 9.99 24.97 9.99ZM24.97 4.99C25.89 4.99 26.63 5.74 26.63 6.66C26.63 7.57 25.89 8.32 24.97 8.32C24.05 8.32 23.3 7.57 23.3 6.66C23.3 5.74 24.05 4.99 24.97 4.99Z" fill="#FFBB01" fill-opacity="1.000000" fill-rule="nonzero"/>
	<path d="M31.63 6.66C31.63 7.11 31.25 7.49 30.79 7.49C30.33 7.49 29.96 7.11 29.96 6.66C29.96 6.2 30.33 5.82 30.79 5.82C31.25 5.82 31.63 6.2 31.63 6.66Z" fill="#FFBB01" fill-opacity="1.000000" fill-rule="nonzero"/>
	<path d="M19.97 6.66C19.97 7.11 19.6 7.49 19.14 7.49C18.68 7.49 18.31 7.11 18.31 6.66C18.31 6.2 18.68 5.82 19.14 5.82C19.6 5.82 19.97 6.2 19.97 6.66Z" fill="#FFBB01" fill-opacity="1.000000" fill-rule="nonzero"/>
	<path d="M49.8 5.36L46.47 0.37C46.32 0.14 46.06 0 45.78 0C45.5 0 45.24 0.14 45.09 0.37L41.76 5.36C41.67 5.5 41.62 5.66 41.62 5.82L41.62 9.15C41.62 9.61 41.99 9.98 42.45 9.98C42.91 9.98 43.28 9.61 43.28 9.15L43.28 6.07L45.78 2.33L48.28 6.07L48.28 14.98C48.28 15.44 48.65 15.81 49.11 15.81C49.57 15.81 49.94 15.44 49.94 14.98L49.94 5.82C49.94 5.66 49.89 5.5 49.8 5.36Z" fill="#FFBB01" fill-opacity="1.000000" fill-rule="nonzero"/>
	<path d="M46.61 11.65L46.61 6.66C46.61 6.2 46.24 5.82 45.78 5.82C45.32 5.82 44.95 6.2 44.95 6.66L44.95 11.65C44.95 12.11 45.32 12.48 45.78 12.48C46.24 12.48 46.61 12.11 46.61 11.65Z" fill="#FFBB01" fill-opacity="1.000000" fill-rule="nonzero"/>
	<path d="M0.82 7.49L1.66 7.49L1.66 17.48C1.66 17.94 2.03 18.31 2.49 18.31C2.95 18.31 3.32 17.94 3.32 17.48L3.32 6.66C3.32 6.2 2.95 5.82 2.49 5.82L2.44 5.82L4.99 2.26L7.53 5.82L7.48 5.82C7.02 5.82 6.65 6.2 6.65 6.66L6.65 8.32C6.65 8.78 7.02 9.15 7.48 9.15C7.94 9.15 8.32 8.78 8.32 8.32L8.32 7.49L9.15 7.49C9.46 7.49 9.74 7.31 9.89 7.03C10.03 6.76 10 6.43 9.82 6.17L5.66 0.34C5.5 0.13 5.25 0 4.99 0C4.72 0 4.47 0.13 4.31 0.34L0.15 6.17C-0.03 6.43 -0.06 6.76 0.09 7.03C0.23 7.31 0.51 7.49 0.82 7.49Z" fill="#FFBB01" fill-opacity="1.000000" fill-rule="nonzero"/>
	<path d="M4.99 11.65L4.99 14.15C4.99 14.61 5.36 14.98 5.82 14.98C6.28 14.98 6.65 14.61 6.65 14.15L6.65 11.65C6.65 11.19 6.28 10.82 5.82 10.82C5.36 10.82 4.99 11.19 4.99 11.65Z" fill="#FFBB01" fill-opacity="1.000000" fill-rule="nonzero"/>
</svg>
