<svg width="30.000000" height="30.000824" viewBox="0 0 30 30.0008" fill="none" xmlns="http://www.w3.org/2000/svg" xmlns:xlink="http://www.w3.org/1999/xlink">
	<desc>
			Created with Pixso.
	</desc>
	<defs/>
	<path d="M4.98 26.65C4.87 26.54 4.72 26.48 4.57 26.48C4.41 26.48 4.26 26.54 4.15 26.65C4.04 26.76 3.98 26.91 3.98 27.07C3.98 27.22 4.04 27.37 4.15 27.48C4.26 27.59 4.41 27.65 4.57 27.65C4.72 27.65 4.87 27.59 4.98 27.48C5.09 27.37 5.15 27.22 5.15 27.07C5.15 26.91 5.09 26.76 4.98 26.65Z" fill="#FFBB01" fill-opacity="1.000000" fill-rule="nonzero"/>
	<path d="M27.51 10.71C27.4 10.61 27.25 10.54 27.09 10.54C26.94 10.54 26.79 10.61 26.68 10.71C26.57 10.82 26.51 10.97 26.51 11.13C26.51 11.28 26.57 11.43 26.68 11.54C26.79 11.65 26.94 11.71 27.09 11.71C27.25 11.71 27.4 11.65 27.51 11.54C27.62 11.43 27.68 11.28 27.68 11.13C27.68 10.97 27.62 10.82 27.51 10.71Z" fill="#FFBB01" fill-opacity="1.000000" fill-rule="nonzero"/>
	<path d="M29.82 0.17C29.71 0.06 29.56 0 29.41 0L14.99 0C14.67 0 14.41 0.26 14.41 0.58L14.41 2.26L8.85 3.75C8.54 3.83 8.36 4.15 8.44 4.46L11.32 15.21L8.83 17.7C8.51 17.23 7.98 16.93 7.38 16.93L1.75 16.93C0.78 16.93 0 17.72 0 18.69L0 28.24C0 29.21 0.78 30 1.75 30L7.38 30C8.2 30 8.89 29.43 9.08 28.66L9.78 29.27C10.32 29.74 11.01 30 11.72 30L29.41 30C29.73 30 30 29.73 30 29.41L30 0.58C29.99 0.43 29.93 0.28 29.82 0.17ZM7.96 28.24C7.96 28.56 7.7 28.82 7.38 28.82L1.75 28.82C1.43 28.82 1.17 28.56 1.17 28.24L1.17 18.69C1.17 18.36 1.43 18.1 1.75 18.1L3.98 18.1L3.98 24.85C3.98 25.17 4.24 25.44 4.57 25.44C4.89 25.44 5.15 25.17 5.15 24.85L5.15 18.1L7.38 18.1C7.7 18.1 7.96 18.36 7.96 18.69L7.96 28.24L7.96 28.24ZM9.72 4.73L14.41 3.47L14.41 5.64L14.02 5.75C13.87 5.79 13.74 5.89 13.66 6.02C13.58 6.15 13.56 6.31 13.6 6.46C13.83 7.31 13.33 8.17 12.49 8.4C12.34 8.44 12.21 8.54 12.13 8.67C12.05 8.81 12.03 8.97 12.07 9.12L14.36 17.57L13.18 17.57L12.57 15.2C12.56 15.13 12.52 15.06 12.48 15L9.72 4.73ZM14.41 8.33L14.41 13.27L13.34 9.32C13.79 9.09 14.15 8.74 14.41 8.33ZM22.83 28.82L11.72 28.82C11.29 28.82 10.88 28.67 10.55 28.39L9.14 27.15L9.14 19.05L11.69 16.49L12.16 18.3C12.22 18.56 12.46 18.75 12.73 18.75L24.25 18.75C24.7 18.75 25.07 19.11 25.07 19.57C25.07 20.02 24.7 20.39 24.25 20.39L18.34 20.39C18.02 20.39 17.76 20.65 17.76 20.97C17.76 21.3 18.02 21.56 18.34 21.56L26.08 21.56C26.53 21.56 26.9 21.93 26.9 22.38C26.9 22.83 26.53 23.2 26.08 23.2L18.34 23.2C18.02 23.2 17.76 23.46 17.76 23.78C17.76 24.11 18.02 24.37 18.34 24.37L24.83 24.37C25.28 24.37 25.65 24.74 25.65 25.19C25.65 25.64 25.28 26.01 24.83 26.01L18.34 26.01C18.02 26.01 17.76 26.27 17.76 26.6C17.76 26.92 18.02 27.18 18.34 27.18L22.83 27.18C23.28 27.18 23.65 27.55 23.65 28C23.65 28.46 23.28 28.82 22.83 28.82ZM28.82 28.82L28.82 28.82L24.64 28.82C24.76 28.57 24.82 28.3 24.82 28C24.82 27.71 24.76 27.43 24.64 27.18L24.83 27.18C25.92 27.18 26.82 26.29 26.82 25.19C26.82 24.87 26.74 24.57 26.61 24.3C27.45 24.07 28.07 23.29 28.07 22.38C28.07 21.93 27.93 21.52 27.68 21.19L27.68 13.77C27.68 13.44 27.42 13.18 27.09 13.18C26.77 13.18 26.51 13.44 26.51 13.77L26.51 20.43C26.37 20.4 26.23 20.39 26.08 20.39L26.06 20.39C26.17 20.14 26.24 19.86 26.24 19.57C26.24 18.47 25.34 17.57 24.25 17.57L23.3 17.57C24.3 17.14 25.01 16.15 25.01 15C25.01 13.45 23.75 12.19 22.2 12.19C20.66 12.19 19.4 13.45 19.4 15C19.4 16.15 20.1 17.14 21.1 17.57L17.9 17.57L17.9 6.43C18.94 6.2 19.77 5.38 20 4.33L24.41 4.33C24.63 5.38 25.46 6.2 26.51 6.43L26.51 8.25C26.51 8.58 26.77 8.84 27.09 8.84C27.42 8.84 27.68 8.58 27.68 8.25L27.68 5.91C27.68 5.59 27.42 5.32 27.09 5.32C26.22 5.32 25.51 4.62 25.51 3.75C25.51 3.42 25.25 3.16 24.93 3.16L19.47 3.16C19.15 3.16 18.89 3.42 18.89 3.75C18.89 4.62 18.18 5.32 17.31 5.32C16.99 5.32 16.73 5.59 16.73 5.91L16.73 17.57L15.58 17.57L15.58 1.17L28.82 1.17L28.82 28.82ZM22.2 16.63C21.3 16.63 20.57 15.9 20.57 15C20.57 14.1 21.3 13.36 22.2 13.36C23.1 13.36 23.83 14.1 23.83 15C23.83 15.9 23.1 16.63 22.2 16.63Z" fill="#FFBB01" fill-opacity="1.000000" fill-rule="nonzero"/>
</svg>
