<svg width="49.160599" height="50.000061" viewBox="0 0 49.1606 50.0001" fill="none" xmlns="http://www.w3.org/2000/svg" xmlns:xlink="http://www.w3.org/1999/xlink">
	<desc>
			Created with Pixso.
	</desc>
	<defs/>
	<path d="M42.11 36.7L39.16 39.65L37.39 37.87C37.06 37.55 36.53 37.55 36.21 37.87C35.88 38.2 35.88 38.73 36.21 39.06L38.56 41.41C38.72 41.57 38.93 41.66 39.16 41.66C39.38 41.66 39.59 41.57 39.75 41.41L43.32 37.87C43.56 37.67 43.66 37.35 43.59 37.05C43.52 36.74 43.28 36.5 42.98 36.43C42.67 36.36 42.35 36.46 42.15 36.7L42.11 36.7Z" fill="#FFBB01" fill-opacity="1.000000" fill-rule="nonzero"/>
	<path d="M43.32 30.91L43.32 28.32C43.32 27.86 42.95 27.49 42.49 27.49L39.99 27.49L39.99 26.66C39.99 25.28 41.11 24.16 42.49 24.16C42.95 24.16 43.32 23.79 43.32 23.33C43.32 22.86 42.95 22.49 42.49 22.49C40.19 22.49 38.32 24.36 38.32 26.66L38.32 27.49L35.82 27.49C35.36 27.49 34.99 27.86 34.99 28.32L34.99 30.91C30.72 32.87 28.39 37.54 29.39 42.13C30.39 46.72 34.46 50 39.16 50C43.86 50 47.92 46.72 48.92 42.13C49.93 37.54 47.6 32.87 43.32 30.91ZM39.99 48.32L39.99 47.49C39.99 47.03 39.62 46.65 39.16 46.65C38.7 46.65 38.32 47.03 38.32 47.49L38.32 48.32C34.35 47.94 31.2 44.8 30.82 40.82L31.66 40.82C32.12 40.82 32.49 40.45 32.49 39.99C32.49 39.53 32.12 39.16 31.66 39.16L30.82 39.16C31.14 36.04 33.17 33.37 36.08 32.23C36.4 32.11 36.61 31.8 36.61 31.46L36.61 29.16L41.61 29.16L41.61 31.46C41.62 31.8 41.83 32.11 42.15 32.23C45.09 33.35 47.16 36.02 47.49 39.16L46.66 39.16C46.19 39.16 45.82 39.53 45.82 39.99C45.82 40.45 46.19 40.82 46.66 40.82L47.49 40.82C47.11 44.8 43.96 47.94 39.99 48.32Z" fill="#FFBB01" fill-opacity="1.000000" fill-rule="nonzero"/>
	<path d="M26.83 43.32C26.66 43.32 4.16 43.32 4.16 43.32C2.78 43.32 1.66 42.2 1.66 40.82L1.66 14.16L44.99 14.16L44.99 29.54C44.99 30 45.36 30.37 45.82 30.37C46.28 30.37 46.65 30 46.65 29.54L46.65 8.33C46.65 6.03 44.79 4.16 42.49 4.16L40.82 4.16L40.82 3.33C40.82 2.87 40.45 2.49 39.99 2.49C39.53 2.49 39.16 2.87 39.16 3.33L39.16 6.66C39.16 7.58 38.41 8.33 37.49 8.33C36.57 8.33 35.82 7.58 35.82 6.66L35.82 3.33C35.82 2.41 36.57 1.66 37.49 1.66C37.95 1.66 38.32 1.29 38.32 0.83C38.32 0.37 37.95 0 37.49 0C35.65 0 34.16 1.49 34.16 3.33L34.16 4.16L26.66 4.16L26.66 3.33C26.66 2.87 26.28 2.49 25.82 2.49C25.36 2.49 24.99 2.87 24.99 3.33L24.99 6.66C24.99 7.58 24.25 8.33 23.32 8.33C22.4 8.33 21.66 7.58 21.66 6.66L21.66 3.33C21.66 2.41 22.4 1.66 23.32 1.66C23.79 1.66 24.16 1.29 24.16 0.83C24.16 0.37 23.79 0 23.32 0C21.48 0 19.99 1.49 19.99 3.33L19.99 4.16L12.49 4.16L12.49 3.33C12.49 2.87 12.12 2.49 11.66 2.49C11.2 2.49 10.83 2.87 10.83 3.33L10.83 6.66C10.83 7.58 10.08 8.33 9.16 8.33C8.24 8.33 7.49 7.58 7.49 6.66L7.49 3.33C7.49 2.41 8.24 1.66 9.16 1.66C9.62 1.66 9.99 1.29 9.99 0.83C9.99 0.37 9.62 0 9.16 0C7.32 0 5.83 1.49 5.83 3.33L5.83 4.16L4.16 4.16C1.86 4.16 0 6.03 0 8.33L0 40.82C0 43.12 1.86 44.99 4.16 44.99L23.32 44.99C27.7 44.99 27.7 44.99 27.7 44.16C27.7 43.93 27.61 43.72 27.46 43.56C27.29 43.4 27.07 43.31 26.83 43.32ZM4.16 5.83L5.83 5.83L5.83 6.66C5.83 8.5 7.32 9.99 9.16 9.99C11 9.99 12.49 8.5 12.49 6.66L12.49 5.83L19.99 5.83L19.99 6.66C19.99 8.5 21.48 9.99 23.32 9.99C25.17 9.99 26.66 8.5 26.66 6.66L26.66 5.83L34.16 5.83L34.16 6.66C34.16 8.5 35.65 9.99 37.49 9.99C39.33 9.99 40.82 8.5 40.82 6.66L40.82 5.83L42.49 5.83C43.87 5.83 44.99 6.95 44.99 8.33L44.99 12.49L1.66 12.49L1.66 8.33C1.66 6.95 2.78 5.83 4.16 5.83Z" fill="#FFBB01" fill-opacity="1.000000" fill-rule="nonzero"/>
	<path d="M14.99 17.49C14.99 17.03 14.62 16.66 14.16 16.66L7.49 16.66C7.03 16.66 6.66 17.03 6.66 17.49L6.66 24.16C6.66 24.62 7.03 24.99 7.49 24.99L14.16 24.99C14.62 24.99 14.99 24.62 14.99 24.16L14.99 17.49ZM13.33 23.33L8.33 23.33L8.33 18.33L13.33 18.33L13.33 23.33Z" fill="#FFBB01" fill-opacity="1.000000" fill-rule="nonzero"/>
	<path d="M14.16 29.99C14.62 29.99 14.99 29.62 14.99 29.16C14.99 28.7 14.62 28.32 14.16 28.32L7.49 28.32C7.03 28.32 6.66 28.7 6.66 29.16L6.66 35.82C6.66 36.28 7.03 36.66 7.49 36.66L14.16 36.66C14.62 36.66 14.99 36.28 14.99 35.82L14.99 32.49C14.99 32.03 14.62 31.66 14.16 31.66C13.7 31.66 13.33 32.03 13.33 32.49L13.33 34.99L8.33 34.99L8.33 29.99L14.16 29.99Z" fill="#FFBB01" fill-opacity="1.000000" fill-rule="nonzero"/>
	<path d="M19.16 28.32C18.7 28.32 18.33 28.7 18.33 29.16L18.33 35.82C18.33 36.28 18.7 36.66 19.16 36.66L25.82 36.66C26.28 36.66 26.66 36.28 26.66 35.82L26.66 29.16C26.66 28.7 26.28 28.32 25.82 28.32L19.16 28.32ZM24.99 34.99L19.99 34.99L19.99 29.99L24.99 29.99L24.99 34.99Z" fill="#FFBB01" fill-opacity="1.000000" fill-rule="nonzero"/>
	<path d="M37.49 23.33C37.95 23.33 38.32 22.95 38.32 22.49L38.32 17.49C38.32 17.03 37.95 16.66 37.49 16.66L30.82 16.66C30.36 16.66 29.99 17.03 29.99 17.49L29.99 24.16C29.99 24.62 30.36 24.99 30.82 24.99C31.28 24.99 31.66 24.62 31.66 24.16L31.66 18.33L36.66 18.33L36.66 22.49C36.66 22.95 37.03 23.33 37.49 23.33Z" fill="#FFBB01" fill-opacity="1.000000" fill-rule="nonzero"/>
	<path d="M26.42 16.9C26.26 16.74 26.05 16.65 25.82 16.65C25.6 16.65 25.39 16.74 25.23 16.9L22.49 19.65L19.75 16.9C19.42 16.57 18.89 16.57 18.57 16.9C18.24 17.23 18.24 17.76 18.57 18.08L21.32 20.83L18.57 23.57C18.41 23.72 18.32 23.94 18.32 24.16C18.32 24.38 18.41 24.59 18.57 24.75C18.72 24.91 18.94 25 19.16 25C19.38 25 19.59 24.91 19.75 24.75L22.49 22L25.23 24.75C25.39 24.91 25.6 25 25.82 25C26.05 25 26.26 24.91 26.42 24.75C26.57 24.59 26.66 24.38 26.66 24.16C26.66 23.94 26.57 23.72 26.42 23.57L23.67 20.83L26.42 18.08C26.57 17.93 26.66 17.71 26.66 17.49C26.66 17.27 26.57 17.06 26.42 16.9Z" fill="#FFBB01" fill-opacity="1.000000" fill-rule="nonzero"/>
</svg>
