<svg width="17.272705" height="16.776001" viewBox="0 0 17.2727 16.776" fill="none" xmlns="http://www.w3.org/2000/svg" xmlns:xlink="http://www.w3.org/1999/xlink">
	<desc>
			Created with Pixso.
	</desc>
	<defs/>
	<path id="facebook" d="M2.53 16.77L8.16 16.77L8.16 10.81L6.13 10.81L6.13 8.84L8.16 8.84L8.16 6.38C8.16 5.03 9.29 3.93 10.69 3.93L13.22 3.93L13.22 5.89L11.2 5.89C10.64 5.89 10.18 6.33 10.18 6.88L10.18 8.84L13.13 8.84L12.79 10.81L10.18 10.81L10.18 16.77L14.74 16.77C16.13 16.77 17.27 15.67 17.27 14.31L17.27 2.45C17.27 1.1 16.13 0 14.74 0L2.53 0C1.13 0 0 1.1 0 2.45L0 14.31C0 15.67 1.13 16.77 2.53 16.77ZM1.01 2.45C1.01 1.64 1.69 0.98 2.53 0.98L14.74 0.98C15.57 0.98 16.26 1.64 16.26 2.45L16.26 14.31C16.26 15.13 15.57 15.79 14.74 15.79L11.2 15.79L11.2 11.79L13.65 11.79L14.32 7.86L11.2 7.86L11.2 6.88L14.23 6.88L14.23 2.94L10.69 2.94C8.74 2.94 7.15 4.49 7.15 6.38L7.15 7.86L5.12 7.86L5.12 11.79L7.15 11.79L7.15 15.79L2.53 15.79C1.69 15.79 1.01 15.13 1.01 14.31L1.01 2.45Z" fill="#FFFFFF" fill-opacity="1.000000" fill-rule="nonzero"/>
</svg>
