<svg width="30.000015" height="25.108917" viewBox="0 0 30 25.1089" fill="none" xmlns="http://www.w3.org/2000/svg" xmlns:xlink="http://www.w3.org/1999/xlink">
	<desc>
			Created with Pixso.
	</desc>
	<defs/>
	<path d="M19.73 3.75C19.01 3.75 18.32 4.04 17.81 4.54C17.31 4.04 16.62 3.75 15.89 3.75C14.38 3.75 13.15 4.98 13.15 6.5C13.15 7.89 13.93 9.3 15.41 10.59C16.5 11.53 17.57 12.08 17.62 12.1C17.68 12.13 17.75 12.15 17.81 12.15C17.88 12.15 17.95 12.13 18.01 12.1C18.06 12.08 19.13 11.53 20.21 10.59C21.7 9.3 22.48 7.89 22.48 6.5C22.48 4.98 21.25 3.75 19.73 3.75ZM17.81 11.21C17.01 10.75 14.03 8.9 14.03 6.5C14.03 5.47 14.86 4.63 15.89 4.63C16.52 4.63 17.1 4.94 17.45 5.47C17.53 5.59 17.67 5.66 17.81 5.66C17.96 5.66 18.1 5.59 18.18 5.47C18.53 4.94 19.11 4.63 19.73 4.63C20.76 4.63 21.6 5.47 21.6 6.5C21.6 8.9 18.62 10.75 17.81 11.21Z" fill="#FFBB01" fill-opacity="1.000000" fill-rule="nonzero"/>
	<path d="M26.74 3.75L24.39 3.75C24.15 3.75 23.95 3.95 23.95 4.19C23.95 4.43 24.15 4.63 24.39 4.63L26.74 4.63C26.98 4.63 27.18 4.43 27.18 4.19C27.18 3.95 26.98 3.75 26.74 3.75Z" fill="#FFBB01" fill-opacity="1.000000" fill-rule="nonzero"/>
	<path d="M25.8 8.45L24.39 8.45C24.15 8.45 23.95 8.65 23.95 8.89C23.95 9.13 24.15 9.33 24.39 9.33L25.8 9.33C26.04 9.33 26.24 9.13 26.24 8.89C26.24 8.65 26.04 8.45 25.8 8.45Z" fill="#FFBB01" fill-opacity="1.000000" fill-rule="nonzero"/>
	<path d="M26.74 6.1L24.39 6.1C24.15 6.1 23.95 6.3 23.95 6.54C23.95 6.78 24.15 6.98 24.39 6.98L26.74 6.98C26.98 6.98 27.18 6.78 27.18 6.54C27.18 6.3 26.98 6.1 26.74 6.1Z" fill="#FFBB01" fill-opacity="1.000000" fill-rule="nonzero"/>
	<path d="M8.89 10.74C9.13 10.74 9.33 10.54 9.33 10.3C9.33 10.06 9.13 9.86 8.89 9.86L7.95 9.86C7.71 9.86 7.51 10.06 7.51 10.3C7.51 10.54 7.71 10.74 7.95 10.74L8.89 10.74Z" fill="#FFBB01" fill-opacity="1.000000" fill-rule="nonzero"/>
	<path d="M4.19 10.74L6.07 10.74C6.31 10.74 6.51 10.54 6.51 10.3C6.51 10.06 6.31 9.86 6.07 9.86L4.19 9.86C3.95 9.86 3.75 10.06 3.75 10.3C3.75 10.54 3.95 10.74 4.19 10.74Z" fill="#FFBB01" fill-opacity="1.000000" fill-rule="nonzero"/>
	<path d="M4.19 13.09L8.89 13.09C9.13 13.09 9.33 12.89 9.33 12.65C9.33 12.4 9.13 12.21 8.89 12.21L4.19 12.21C3.95 12.21 3.75 12.4 3.75 12.65C3.75 12.89 3.95 13.09 4.19 13.09Z" fill="#FFBB01" fill-opacity="1.000000" fill-rule="nonzero"/>
	<path d="M9.33 15C9.33 14.75 9.13 14.56 8.89 14.56L4.19 14.56C3.95 14.56 3.75 14.75 3.75 15C3.75 15.24 3.95 15.43 4.19 15.43L8.89 15.43C9.13 15.43 9.33 15.24 9.33 15Z" fill="#FFBB01" fill-opacity="1.000000" fill-rule="nonzero"/>
	<path d="M7.95 17.78L15.46 17.78C15.71 17.78 15.9 17.59 15.9 17.34C15.9 17.1 15.71 16.9 15.46 16.9L7.95 16.9C7.71 16.9 7.51 17.1 7.51 17.34C7.51 17.59 7.71 17.78 7.95 17.78Z" fill="#FFBB01" fill-opacity="1.000000" fill-rule="nonzero"/>
	<path d="M4.19 16.9C3.95 16.9 3.75 17.1 3.75 17.34C3.75 17.59 3.95 17.78 4.19 17.78L6.07 17.78C6.31 17.78 6.51 17.59 6.51 17.34C6.51 17.1 6.31 16.9 6.07 16.9L4.19 16.9Z" fill="#FFBB01" fill-opacity="1.000000" fill-rule="nonzero"/>
	<path d="M25.8 10.8L24.39 10.8C24.15 10.8 23.95 10.99 23.95 11.24C23.95 11.48 24.15 11.68 24.39 11.68L25.8 11.68C26.04 11.68 26.24 11.48 26.24 11.24C26.24 10.99 26.04 10.8 25.8 10.8Z" fill="#FFBB01" fill-opacity="1.000000" fill-rule="nonzero"/>
	<path d="M28.15 0L12.18 0C11.16 0 10.33 0.82 10.33 1.84L10.33 13.59C10.33 14.61 11.16 15.43 12.18 15.43L22.33 15.43L25.62 18.73C25.8 18.91 26.03 19 26.27 19C26.38 19 26.5 18.98 26.62 18.93C26.96 18.79 27.18 18.46 27.18 18.09L27.18 15.43L28.15 15.43C29.17 15.43 30 14.61 30 13.59L30 1.84C30 0.82 29.17 0 28.15 0ZM29.12 13.59C29.12 14.12 28.68 14.56 28.15 14.56L26.74 14.56C26.49 14.56 26.3 14.75 26.3 15L26.3 18.09C26.3 18.1 26.3 18.11 26.28 18.12C26.26 18.12 26.25 18.12 26.25 18.11L22.82 14.68C22.74 14.6 22.63 14.56 22.51 14.56L12.18 14.56C11.64 14.56 11.21 14.12 11.21 13.59L11.21 1.84C11.21 1.31 11.64 0.87 12.18 0.87L28.15 0.87C28.68 0.87 29.12 1.31 29.12 1.84L29.12 13.59L29.12 13.59Z" fill="#FFBB01" fill-opacity="1.000000" fill-rule="nonzero"/>
	<path d="M19.22 16.43C18.98 16.43 18.78 16.63 18.78 16.87L18.78 19.69C18.78 20.23 18.35 20.66 17.81 20.66L7.48 20.66C7.36 20.66 7.25 20.71 7.17 20.79L3.74 24.22C3.74 24.22 3.73 24.23 3.71 24.22C3.69 24.21 3.69 24.2 3.69 24.19L3.69 21.1C3.69 20.86 3.5 20.66 3.25 20.66L1.84 20.66C1.31 20.66 0.87 20.23 0.87 19.69L0.87 7.95C0.87 7.41 1.31 6.98 1.84 6.98L8.89 6.98C9.13 6.98 9.33 6.78 9.33 6.54C9.33 6.3 9.13 6.1 8.89 6.1L1.84 6.1C0.82 6.1 0 6.93 0 7.95L0 19.69C0 20.71 0.82 21.54 1.84 21.54L2.81 21.54L2.81 24.19C2.81 24.56 3.03 24.89 3.37 25.03C3.49 25.08 3.61 25.1 3.72 25.1C3.96 25.1 4.19 25.01 4.37 24.84L7.66 21.54L17.81 21.54C18.83 21.54 19.66 20.71 19.66 19.69L19.66 16.87C19.66 16.63 19.46 16.43 19.22 16.43Z" fill="#FFBB01" fill-opacity="1.000000" fill-rule="nonzero"/>
</svg>
