<svg width="17.272705" height="16.776001" viewBox="0 0 17.2727 16.776" fill="none" xmlns="http://www.w3.org/2000/svg" xmlns:xlink="http://www.w3.org/1999/xlink">
	<desc>
			Created with Pixso.
	</desc>
	<defs/>
	<path id="github" d="M8.63 0C3.88 0 0 3.81 0 8.42C0 13 3.85 16.77 8.63 16.77C13.41 16.77 17.27 13 17.27 8.42C17.27 3.81 13.38 0 8.63 0ZM10.15 15.64C9.66 15.74 9.15 15.79 8.63 15.79C8.12 15.79 7.6 15.74 7.11 15.64L7.11 13.34C7.11 12.79 7.27 12.59 7.47 12.33C7.57 12.21 7.63 12.11 8.09 11.43L7.32 11.32C5.31 11.03 4.52 10.02 4.21 9.23C3.8 8.18 4.02 6.86 4.75 6.03C4.86 5.9 4.95 5.68 4.87 5.46C4.71 5 4.73 4.29 4.84 4.01C5.37 4.09 5.92 4.46 6.38 4.73C6.6 4.85 6.71 4.82 6.81 4.83C7.18 4.75 7.76 4.57 8.64 4.57C9.19 4.57 9.76 4.65 10.33 4.81C10.43 4.81 10.6 4.89 10.88 4.73C11.36 4.44 11.89 4.08 12.43 4.01C12.53 4.29 12.55 5 12.4 5.46C12.32 5.68 12.41 5.9 12.52 6.03C13.25 6.86 13.46 8.18 13.05 9.23C12.74 10.02 11.95 11.03 9.95 11.32L9.17 11.43C9.65 12.13 9.7 12.22 9.8 12.33C10 12.59 10.15 12.79 10.15 13.34L10.15 15.64ZM11.16 15.36L11.16 13.34C11.16 12.78 11.04 12.41 10.88 12.13C12.42 11.73 13.51 10.84 14 9.58C14.51 8.24 14.28 6.65 13.42 5.55C13.57 4.89 13.57 3.84 13.21 3.34C13.04 3.13 12.82 3.01 12.54 3.01C12.53 3.01 12.53 3.01 12.53 3.01C11.74 3.05 11.13 3.43 10.46 3.83C9.86 3.67 9.24 3.59 8.62 3.59C7.99 3.59 7.37 3.68 6.81 3.83C6.11 3.42 5.5 3.05 4.69 3.01C4.44 3.01 4.22 3.13 4.06 3.34C3.69 3.84 3.69 4.89 3.84 5.55C2.98 6.65 2.75 8.25 3.27 9.58C3.75 10.84 4.85 11.73 6.38 12.13C6.26 12.34 6.16 12.62 6.12 12.99C5.81 13.1 5.54 13.13 5.29 13.06C5.03 12.98 4.82 12.81 4.64 12.52C4.24 11.86 3.55 11.33 2.77 11.4L2.86 12.38C3.22 12.34 3.58 12.72 3.77 13.02C4.08 13.53 4.49 13.86 5 14C5.38 14.11 5.73 14.11 6.1 14.03L6.1 15.36C3.16 14.35 1.01 11.62 1.01 8.42C1.01 4.35 4.44 0.98 8.63 0.98C12.82 0.98 16.26 4.35 16.26 8.42C16.26 11.62 14.11 14.35 11.16 15.36Z" fill="#FFFFFF" fill-opacity="1.000000" fill-rule="nonzero"/>
</svg>
