<svg width="17.272705" height="16.776001" viewBox="0 0 17.2727 16.776" fill="none" xmlns="http://www.w3.org/2000/svg" xmlns:xlink="http://www.w3.org/1999/xlink">
	<desc>
			Created with Pixso.
	</desc>
	<defs/>
	<path id="Vector" d="M2.53 16.77L14.74 16.77C16.13 16.77 17.27 15.67 17.27 14.31L17.27 2.45C17.27 1.1 16.13 0 14.74 0L2.53 0C1.13 0 0 1.1 0 2.45L0 14.31C0 15.67 1.13 16.77 2.53 16.77ZM1.01 2.45C1.01 1.64 1.69 0.98 2.53 0.98L14.74 0.98C15.57 0.98 16.26 1.64 16.26 2.45L16.26 14.31C16.26 15.13 15.57 15.79 14.74 15.79L2.53 15.79C1.69 15.79 1.01 15.13 1.01 14.31L1.01 2.45Z" fill="#FFFFFF" fill-opacity="1.000000" fill-rule="nonzero"/>
	<path id="Vector" d="M8.63 12.81C11.14 12.81 13.19 10.82 13.19 8.38C13.19 5.94 11.14 3.96 8.63 3.96C6.12 3.96 4.08 5.94 4.08 8.38C4.08 10.82 6.12 12.81 8.63 12.81ZM8.63 4.94C10.58 4.94 12.17 6.49 12.17 8.38C12.17 10.28 10.58 11.82 8.63 11.82C6.68 11.82 5.09 10.28 5.09 8.38C5.09 6.49 6.68 4.94 8.63 4.94Z" fill="#FFFFFF" fill-opacity="1.000000" fill-rule="nonzero"/>
	<path id="Vector" d="M13.4 4.7C14.23 4.7 14.9 4.05 14.9 3.25C14.9 2.44 14.23 1.79 13.4 1.79C12.58 1.79 11.9 2.44 11.9 3.25C11.9 4.05 12.58 4.7 13.4 4.7ZM13.4 2.76C13.68 2.76 13.9 2.98 13.9 3.25C13.9 3.51 13.68 3.73 13.4 3.73C13.13 3.73 12.9 3.51 12.9 3.25C12.9 2.98 13.13 2.76 13.4 2.76Z" fill="#FFFFFF" fill-opacity="1.000000" fill-rule="nonzero"/>
</svg>
