<svg width="49.995422" height="49.991486" viewBox="0 0 49.9954 49.9915" fill="none" xmlns="http://www.w3.org/2000/svg" xmlns:xlink="http://www.w3.org/1999/xlink">
	<desc>
			Created with Pixso.
	</desc>
	<defs/>
	<path d="M49.9 11.84C49.73 11.2 49.31 10.65 48.73 10.32C48.16 9.99 47.47 9.9 46.83 10.07C46.19 10.24 45.65 10.66 45.32 11.24L44.9 11.96C44.5 11.74 44 11.87 43.77 12.26L41.65 15.87L40.93 15.45C40.73 15.34 40.5 15.31 40.29 15.37C40.08 15.43 39.89 15.57 39.78 15.76C39.56 16.16 39.7 16.67 40.09 16.9L40.82 17.31L33.73 29.59L31.98 34.26L31.15 35.82C30.66 36.67 30.72 37.72 31.29 38.52L29.41 40.82L28.89 39.5C28.65 38.91 28.1 38.51 27.47 38.46C26.84 38.41 26.24 38.72 25.91 39.27L25.61 39.78L25.33 36.44C25.26 35.65 24.65 35.02 23.87 34.93C23.08 34.83 22.34 35.3 22.09 36.05L20.04 42.2C19.89 42.63 20.13 43.1 20.56 43.25C20.64 43.29 20.73 43.31 20.82 43.32C21.18 43.32 21.5 43.09 21.61 42.75L23.65 36.6L23.94 39.98C24 40.71 24.52 41.31 25.23 41.47C25.93 41.63 26.66 41.32 27.04 40.7L27.34 40.19L27.86 41.5C28.08 42.05 28.58 42.45 29.16 42.53C29.75 42.62 30.34 42.39 30.71 41.93L32.65 39.47C32.87 39.52 33.09 39.55 33.31 39.55C34.2 39.56 35.03 39.09 35.48 38.32L36.32 36.93L39.49 33.07L46.65 20.65L47.37 21.06C47.57 21.17 47.71 21.36 47.77 21.57C47.82 21.78 47.79 22.01 47.68 22.2L44.35 27.98C44.22 28.17 44.18 28.4 44.23 28.62C44.28 28.84 44.42 29.04 44.62 29.15C44.81 29.26 45.04 29.29 45.25 29.24C45.47 29.18 45.65 29.04 45.76 28.84L49.09 23.07C49.42 22.5 49.51 21.81 49.34 21.17C49.17 20.53 48.75 19.98 48.17 19.65L47.45 19.24L49.53 15.63C49.76 15.23 49.63 14.73 49.23 14.5L49.65 13.77C49.99 13.19 50.08 12.49 49.9 11.84ZM46.76 12.07C46.87 11.88 47.05 11.74 47.27 11.68C47.48 11.63 47.71 11.66 47.9 11.76C48.09 11.87 48.23 12.06 48.29 12.27C48.34 12.49 48.31 12.71 48.21 12.9L47.79 13.63L46.34 12.8L46.76 12.07ZM35.4 35.33L34.98 35.09L33.75 34.38L34.93 31.21L37.56 32.73L35.4 35.33ZM32.9 37.74C32.55 37.5 32.44 37.03 32.65 36.65L33.07 35.93L34.52 36.76L34.1 37.48C33.98 37.68 33.79 37.82 33.56 37.87C33.33 37.92 33.09 37.88 32.9 37.74ZM38.51 31.36L35.63 29.69L42.29 18.15L45.17 19.81L38.51 31.36ZM46.01 18.37L43.12 16.7L44.79 13.82L47.67 15.49L46.01 18.37Z" fill="#FFBB01" fill-opacity="1.000000" fill-rule="nonzero"/>
	<path d="M13.14 37.33L10.19 40.27L8.43 38.51C8.1 38.18 7.58 38.18 7.25 38.51C7.09 38.66 7.01 38.87 7.01 39.1C7.01 39.32 7.09 39.53 7.25 39.69L9.02 41.45C9.33 41.76 9.75 41.94 10.19 41.94C10.64 41.94 11.06 41.77 11.38 41.45L14.32 38.51C14.6 38.17 14.58 37.68 14.27 37.37C13.97 37.07 13.47 37.05 13.14 37.33Z" fill="#FFBB01" fill-opacity="1.000000" fill-rule="nonzero"/>
	<path d="M3.33 39.57C3.33 43.48 6.5 46.65 10.41 46.65C14.32 46.65 17.49 43.48 17.49 39.57C17.49 39.11 17.12 38.74 16.66 38.74C16.2 38.74 15.83 39.11 15.83 39.57C15.83 42.56 13.4 44.99 10.41 44.99C7.42 44.99 4.99 42.56 4.99 39.57C4.99 36.58 7.42 34.16 10.41 34.16C11.58 34.15 12.72 34.53 13.66 35.24C14.03 35.52 14.55 35.44 14.83 35.07C15.1 34.7 15.03 34.18 14.66 33.91C12.51 32.3 9.64 32.04 7.24 33.24C4.84 34.44 3.33 36.89 3.33 39.57Z" fill="#FFBB01" fill-opacity="1.000000" fill-rule="nonzero"/>
	<path d="M29.99 6.66C30.45 6.66 30.82 6.29 30.82 5.83C30.82 5.37 30.45 4.99 29.99 4.99L8.33 4.99C7.87 4.99 7.49 5.37 7.49 5.83L7.49 9.16C7.49 9.62 7.87 9.99 8.33 9.99L29.99 9.99C30.45 9.99 30.82 9.62 30.82 9.16C30.82 8.7 30.45 8.33 29.99 8.33L9.16 8.33L9.16 6.66L29.99 6.66Z" fill="#FFBB01" fill-opacity="1.000000" fill-rule="nonzero"/>
	<path d="M10.83 11.66C10.37 11.66 9.99 12.03 9.99 12.49C9.99 12.95 10.37 13.33 10.83 13.33L27.49 13.33C27.95 13.33 28.32 12.95 28.32 12.49C28.32 12.03 27.95 11.66 27.49 11.66L10.83 11.66Z" fill="#FFBB01" fill-opacity="1.000000" fill-rule="nonzero"/>
	<path d="M32.49 17.49L14.16 17.49C13.7 17.49 13.33 17.87 13.33 18.33C13.33 18.79 13.7 19.16 14.16 19.16L32.49 19.16C32.95 19.16 33.32 18.79 33.32 18.33C33.32 17.87 32.95 17.49 32.49 17.49Z" fill="#FFBB01" fill-opacity="1.000000" fill-rule="nonzero"/>
	<path d="M24.16 23.32C24.16 22.86 23.78 22.49 23.32 22.49L6.66 22.49C6.2 22.49 5.83 22.86 5.83 23.32C5.83 23.78 6.2 24.16 6.66 24.16L23.32 24.16C23.78 24.16 24.16 23.78 24.16 23.32Z" fill="#FFBB01" fill-opacity="1.000000" fill-rule="nonzero"/>
	<path d="M32.49 22.49L26.66 22.49C26.2 22.49 25.82 22.86 25.82 23.32C25.82 23.78 26.2 24.16 26.66 24.16L32.49 24.16C32.95 24.16 33.32 23.78 33.32 23.32C33.32 22.86 32.95 22.49 32.49 22.49Z" fill="#FFBB01" fill-opacity="1.000000" fill-rule="nonzero"/>
	<path d="M14.99 28.32C15.45 28.32 15.83 27.95 15.83 27.49C15.83 27.03 15.45 26.66 14.99 26.66L6.66 26.66C6.2 26.66 5.83 27.03 5.83 27.49C5.83 27.95 6.2 28.32 6.66 28.32L14.99 28.32Z" fill="#FFBB01" fill-opacity="1.000000" fill-rule="nonzero"/>
	<path d="M18.33 28.32L24.16 28.32C24.62 28.32 24.99 27.95 24.99 27.49C24.99 27.03 24.62 26.66 24.16 26.66L18.33 26.66C17.87 26.66 17.49 27.03 17.49 27.49C17.49 27.95 17.87 28.32 18.33 28.32Z" fill="#FFBB01" fill-opacity="1.000000" fill-rule="nonzero"/>
	<path d="M37.49 38.32C37.03 38.32 36.66 38.69 36.66 39.16L36.66 47.49C36.66 47.95 36.28 48.32 35.82 48.32L2.49 48.32C2.03 48.32 1.66 47.95 1.66 47.49L1.66 2.49C1.66 2.03 2.03 1.66 2.49 1.66L35.82 1.66C36.28 1.66 36.66 2.03 36.66 2.49L36.66 18.14C36.66 18.6 37.03 18.98 37.49 18.98C37.95 18.98 38.32 18.6 38.32 18.14L38.32 2.49C38.32 1.11 37.2 0 35.82 0L2.49 0C1.11 0 0 1.11 0 2.49L0 47.49C0 48.87 1.11 49.99 2.49 49.99L35.82 49.99C37.2 49.99 38.32 48.87 38.32 47.49L38.32 39.16C38.32 38.69 37.95 38.32 37.49 38.32Z" fill="#FFBB01" fill-opacity="1.000000" fill-rule="nonzero"/>
</svg>
