<svg width="14.978210" height="15.000000" viewBox="0 0 14.9782 15" fill="none" xmlns="http://www.w3.org/2000/svg" xmlns:xlink="http://www.w3.org/1999/xlink">
	<desc>
			Created with Pixso.
	</desc>
	<defs/>
	<path d="M11.84 9.29C11.53 8.97 11.16 8.8 10.77 8.8C10.38 8.8 10.01 8.96 9.69 9.28L8.69 10.28C8.6 10.24 8.52 10.2 8.44 10.15C8.33 10.1 8.22 10.04 8.13 9.99C7.19 9.39 6.34 8.62 5.52 7.61C5.13 7.11 4.86 6.69 4.67 6.26C4.93 6.03 5.17 5.78 5.4 5.54C5.49 5.45 5.58 5.36 5.67 5.27C6.33 4.61 6.33 3.75 5.67 3.08L4.8 2.22C4.71 2.12 4.6 2.02 4.51 1.92C4.32 1.72 4.12 1.52 3.91 1.33C3.61 1.02 3.24 0.86 2.85 0.86C2.47 0.86 2.09 1.02 1.78 1.33C1.77 1.33 1.77 1.33 1.77 1.33L0.7 2.42C0.29 2.83 0.06 3.32 0.01 3.89C-0.07 4.82 0.2 5.68 0.41 6.24C0.93 7.62 1.69 8.91 2.84 10.28C4.22 11.94 5.89 13.24 7.8 14.17C8.52 14.51 9.5 14.92 10.58 14.99C10.65 14.99 10.72 15 10.78 15C11.51 15 12.13 14.73 12.61 14.21C12.61 14.2 12.62 14.2 12.62 14.19C12.79 13.99 12.98 13.81 13.17 13.62C13.31 13.49 13.45 13.36 13.59 13.21C13.9 12.89 14.06 12.51 14.06 12.12C14.06 11.72 13.9 11.35 13.58 11.03L11.84 9.29ZM12.97 12.62C12.85 12.75 12.72 12.87 12.59 13.01C12.38 13.2 12.17 13.41 11.97 13.64C11.66 13.98 11.28 14.14 10.78 14.14C10.74 14.14 10.69 14.14 10.64 14.14C9.7 14.08 8.82 13.71 8.17 13.4C6.38 12.53 4.8 11.3 3.5 9.74C2.42 8.44 1.7 7.24 1.22 5.94C0.92 5.16 0.82 4.54 0.86 3.96C0.89 3.59 1.04 3.28 1.3 3.02L2.38 1.94C2.53 1.8 2.7 1.72 2.86 1.72C3.06 1.72 3.22 1.84 3.32 1.94C3.33 1.94 3.33 1.95 3.33 1.95C3.53 2.13 3.71 2.32 3.9 2.52C4 2.62 4.1 2.72 4.2 2.82L5.07 3.69C5.4 4.02 5.4 4.33 5.07 4.67C4.98 4.76 4.89 4.85 4.79 4.94C4.53 5.21 4.28 5.47 4 5.71C3.99 5.72 3.99 5.72 3.98 5.73C3.71 6 3.76 6.27 3.82 6.45C3.82 6.46 3.83 6.47 3.83 6.48C4.05 7.02 4.37 7.53 4.85 8.14L4.85 8.15C5.73 9.22 6.65 10.06 7.67 10.71C7.8 10.79 7.93 10.85 8.06 10.92C8.17 10.97 8.28 11.03 8.37 11.09C8.38 11.09 8.39 11.1 8.41 11.11C8.51 11.16 8.62 11.19 8.72 11.19C8.98 11.19 9.15 11.02 9.2 10.97L10.28 9.89C10.39 9.78 10.56 9.65 10.76 9.65C10.96 9.65 11.12 9.77 11.22 9.88C11.22 9.88 11.22 9.88 11.22 9.89L12.97 11.63C13.3 11.95 13.3 12.29 12.97 12.62Z" fill="#949494" fill-opacity="1.000000" fill-rule="nonzero"/>
	<path d="M8.09 3.56C8.92 3.7 9.67 4.09 10.27 4.7C10.88 5.3 11.27 6.05 11.41 6.88C11.44 7.09 11.62 7.24 11.83 7.24C11.85 7.24 11.88 7.23 11.9 7.23C12.14 7.19 12.29 6.97 12.25 6.74C12.08 5.73 11.61 4.82 10.88 4.09C10.16 3.37 9.24 2.89 8.24 2.72C8 2.68 7.79 2.84 7.75 3.07C7.7 3.3 7.86 3.53 8.09 3.56Z" fill="#949494" fill-opacity="1.000000" fill-rule="nonzero"/>
	<path d="M14.97 6.61C14.68 4.96 13.91 3.46 12.71 2.26C11.51 1.06 10.01 0.28 8.36 0C8.13 -0.04 7.91 0.12 7.87 0.35C7.83 0.58 7.98 0.8 8.22 0.84C9.69 1.09 11.04 1.79 12.11 2.86C13.18 3.93 13.87 5.28 14.12 6.75C14.16 6.96 14.34 7.11 14.55 7.11C14.57 7.11 14.59 7.1 14.62 7.1C14.85 7.06 15.01 6.84 14.97 6.61Z" fill="#949494" fill-opacity="1.000000" fill-rule="nonzero"/>
</svg>
