<svg width="49.999847" height="49.994415" viewBox="0 0 49.9998 49.9944" fill="none" xmlns="http://www.w3.org/2000/svg" xmlns:xlink="http://www.w3.org/1999/xlink">
	<desc>
			Created with Pixso.
	</desc>
	<defs/>
	<path d="M48.32 35.62L48.32 33.32L49.16 33.32C49.39 33.33 49.61 33.23 49.76 33.07C49.91 32.91 49.99 32.7 49.99 32.49L48.5 4.16C48.36 1.87 46.45 0.08 44.16 0.08C41.86 0.08 39.96 1.87 39.82 4.16L38.32 32.49C38.32 32.72 38.4 32.94 38.55 33.11C38.71 33.26 38.93 33.34 39.16 33.32L39.99 33.32L39.99 35.62L38.42 38.78C38.3 39.02 38.3 39.3 38.42 39.53L43.41 49.53C43.46 49.62 43.52 49.71 43.59 49.77C43.69 49.86 43.8 49.93 43.93 49.96L44.39 49.96C44.52 49.93 44.63 49.86 44.73 49.77C44.81 49.71 44.87 49.62 44.91 49.53L49.91 39.53C50.02 39.3 50.02 39.02 49.91 38.78L48.32 35.62ZM40.03 31.66L40.38 24.99L47.93 24.99L48.32 31.66L40.03 31.66ZM41.48 4.2C41.48 2.73 42.68 1.53 44.16 1.53C45.63 1.53 46.83 2.73 46.83 4.2L47.84 23.37L40.47 23.37L40.57 21.7L45.21 21.7C45.67 21.7 46.04 21.33 46.04 20.87C46.04 20.41 45.67 20.03 45.21 20.03L40.65 20.03L41.48 4.2ZM46.66 33.32L46.66 34.99L41.66 34.99L41.66 33.32L46.66 33.32ZM44.99 45.62L44.99 39.99L45.82 39.99C46.28 39.99 46.66 39.62 46.66 39.16C46.66 38.7 46.28 38.32 45.82 38.32L42.49 38.32C42.03 38.32 41.66 38.7 41.66 39.16C41.66 39.62 42.03 39.99 42.49 39.99L43.32 39.99L43.32 45.62L40.09 39.16L41.34 36.66L46.97 36.66L48.22 39.16L44.99 45.62Z" fill="#FFBB01" fill-opacity="1.000000" fill-rule="nonzero"/>
	<path d="M28.33 10.83C28.79 10.83 29.16 10.45 29.16 9.99C29.16 9.53 28.79 9.16 28.33 9.16L6.66 9.16C6.2 9.16 5.83 9.53 5.83 9.99L5.83 13.33C5.83 13.79 6.2 14.16 6.66 14.16L28.33 14.16C28.79 14.16 29.16 13.79 29.16 13.33C29.16 12.87 28.79 12.49 28.33 12.49L7.49 12.49L7.49 10.83L28.33 10.83Z" fill="#FFBB01" fill-opacity="1.000000" fill-rule="nonzero"/>
	<path d="M29.16 18.33C29.16 17.87 28.79 17.49 28.33 17.49L9.99 17.49C9.53 17.49 9.16 17.87 9.16 18.33C9.16 18.79 9.53 19.16 9.99 19.16L28.33 19.16C28.79 19.16 29.16 18.79 29.16 18.33Z" fill="#FFBB01" fill-opacity="1.000000" fill-rule="nonzero"/>
	<path d="M4.99 22.49C4.99 22.95 5.37 23.33 5.83 23.33L19.16 23.33C19.62 23.33 19.99 22.95 19.99 22.49C19.99 22.03 19.62 21.66 19.16 21.66L5.83 21.66C5.37 21.66 4.99 22.03 4.99 22.49Z" fill="#FFBB01" fill-opacity="1.000000" fill-rule="nonzero"/>
	<path d="M24.16 21.66C23.7 21.66 23.33 22.03 23.33 22.49C23.33 22.95 23.7 23.33 24.16 23.33L27.49 23.33C27.95 23.33 28.33 22.95 28.33 22.49C28.33 22.03 27.95 21.66 27.49 21.66L24.16 21.66Z" fill="#FFBB01" fill-opacity="1.000000" fill-rule="nonzero"/>
	<path d="M16.66 26.66C16.66 26.2 16.29 25.83 15.83 25.83L5.83 25.83C5.37 25.83 4.99 26.2 4.99 26.66C4.99 27.12 5.37 27.49 5.83 27.49L15.83 27.49C16.29 27.49 16.66 27.12 16.66 26.66Z" fill="#FFBB01" fill-opacity="1.000000" fill-rule="nonzero"/>
	<path d="M15.83 30.82C15.83 30.36 15.45 29.99 14.99 29.99L5.83 29.99C5.37 29.99 4.99 30.36 4.99 30.82C4.99 31.29 5.37 31.66 5.83 31.66L14.99 31.66C15.45 31.66 15.83 31.29 15.83 30.82Z" fill="#FFBB01" fill-opacity="1.000000" fill-rule="nonzero"/>
	<path d="M5.83 34.16C5.37 34.16 4.99 34.53 4.99 34.99C4.99 35.45 5.37 35.82 5.83 35.82L11.66 35.82C12.12 35.82 12.49 35.45 12.49 34.99C12.49 34.53 12.12 34.16 11.66 34.16L5.83 34.16Z" fill="#FFBB01" fill-opacity="1.000000" fill-rule="nonzero"/>
	<path d="M32.49 0L2.49 0C1.11 0 0 1.11 0 2.49L0 40.82C0 42.2 1.11 43.32 2.49 43.32L16.66 43.32C17.12 43.32 17.49 42.95 17.49 42.49C17.49 42.03 17.12 41.66 16.66 41.66L2.49 41.66C2.03 41.66 1.66 41.28 1.66 40.82L1.66 7.49L33.32 7.49L33.32 40.82C33.32 41.28 32.95 41.66 32.49 41.66L29.99 41.66C29.53 41.66 29.16 42.03 29.16 42.49C29.16 42.95 29.53 43.32 29.99 43.32L32.49 43.32C33.87 43.32 34.99 42.2 34.99 40.82L34.99 2.49C34.99 1.11 33.87 0 32.49 0ZM1.66 5.83L1.66 2.49C1.66 2.03 2.03 1.66 2.49 1.66L32.49 1.66C32.95 1.66 33.32 2.03 33.32 2.49L33.32 5.83L1.66 5.83Z" fill="#FFBB01" fill-opacity="1.000000" fill-rule="nonzero"/>
	<path d="M23.33 30.82C21.95 30.82 20.83 31.94 20.83 33.32C20.83 34.7 21.95 35.82 23.33 35.82C24.71 35.82 25.83 34.7 25.83 33.32C25.83 31.94 24.71 30.82 23.33 30.82ZM23.33 34.16C22.87 34.16 22.49 33.78 22.49 33.32C22.49 32.86 22.87 32.49 23.33 32.49C23.79 32.49 24.16 32.86 24.16 33.32C24.16 33.78 23.79 34.16 23.33 34.16Z" fill="#FFBB01" fill-opacity="1.000000" fill-rule="nonzero"/>
	<path d="M29.99 33.32C29.99 32.4 29.48 31.55 28.66 31.12C28.93 30.23 28.69 29.27 28.04 28.61C27.38 27.96 26.42 27.72 25.53 27.99C25.1 27.17 24.25 26.66 23.33 26.66C22.4 26.66 21.55 27.17 21.12 27.99C20.23 27.72 19.27 27.96 18.61 28.61C17.96 29.27 17.72 30.23 17.99 31.12C17.18 31.55 16.67 32.4 16.67 33.32C16.67 34.25 17.18 35.1 17.99 35.53C17.72 36.42 17.96 37.38 18.61 38.03C18.77 38.19 18.96 38.33 19.16 38.44L19.16 49.16C19.16 49.49 19.36 49.79 19.68 49.92C19.99 50.05 20.34 49.98 20.58 49.75L23.33 47L26.07 49.75C26.22 49.9 26.44 49.99 26.66 49.99C26.77 49.99 26.88 49.97 26.98 49.92C27.29 49.79 27.49 49.49 27.49 49.16L27.49 38.45C27.69 38.34 27.88 38.2 28.04 38.04C28.69 37.39 28.93 36.42 28.66 35.54C29.48 35.11 29.99 34.25 29.99 33.32ZM23.92 45.23C23.76 45.07 23.55 44.98 23.33 44.98C23.1 44.98 22.89 45.07 22.73 45.23L20.83 47.15L20.83 38.73L21.12 38.66C21.55 39.47 22.4 39.99 23.33 39.99C24.25 39.99 25.1 39.47 25.53 38.66L25.83 38.73L25.83 47.15L23.92 45.23ZM27.49 34.16L27.35 34.16C27.01 34.16 26.7 34.36 26.58 34.67C26.45 34.99 26.52 35.34 26.76 35.58L26.86 35.68C27.18 36.01 27.18 36.53 26.86 36.86C26.77 36.95 26.65 37.03 26.53 37.07L26.4 37.07C26.14 37.11 25.87 37.02 25.68 36.83L25.58 36.73C25.35 36.49 24.99 36.42 24.67 36.55C24.36 36.68 24.16 36.99 24.16 37.32L24.16 37.49C24.16 37.95 23.79 38.32 23.33 38.32C22.87 38.32 22.49 37.95 22.49 37.49L22.49 37.35C22.49 37.01 22.29 36.7 21.98 36.57C21.88 36.53 21.77 36.51 21.66 36.52C21.44 36.51 21.22 36.6 21.07 36.76L20.97 36.86C20.78 37.05 20.51 37.13 20.25 37.09L20.13 37.09C20 37.05 19.88 36.98 19.79 36.88C19.47 36.56 19.47 36.03 19.79 35.71L19.9 35.61C20.14 35.37 20.21 35.01 20.08 34.7C19.96 34.39 19.65 34.18 19.31 34.18L19.16 34.18C18.7 34.18 18.33 33.81 18.33 33.35C18.33 32.89 18.7 32.52 19.16 32.52L19.3 32.52C19.64 32.52 19.95 32.31 20.08 32C20.2 31.69 20.13 31.33 19.89 31.09L19.79 30.99C19.47 30.67 19.46 30.14 19.79 29.81C20.11 29.49 20.64 29.48 20.97 29.81L21.07 29.92C21.31 30.16 21.66 30.23 21.98 30.1C22.29 29.97 22.49 29.66 22.49 29.33L22.49 29.16C22.49 28.7 22.87 28.33 23.33 28.33C23.79 28.33 24.16 28.7 24.16 29.16L24.16 29.3C24.16 29.64 24.36 29.95 24.68 30.07C24.99 30.2 25.35 30.13 25.58 29.89L25.68 29.79C26.01 29.47 26.54 29.46 26.86 29.79C27.19 30.11 27.19 30.64 26.87 30.97L26.76 31.07C26.52 31.3 26.45 31.66 26.58 31.97C26.7 32.29 27.01 32.49 27.35 32.49L27.49 32.49C27.95 32.49 28.33 32.86 28.33 33.32C28.33 33.78 27.95 34.16 27.49 34.16Z" fill="#FFBB01" fill-opacity="1.000000" fill-rule="nonzero"/>
</svg>
