<svg width="50.000092" height="49.166748" viewBox="0 0 50.0001 49.1667" fill="none" xmlns="http://www.w3.org/2000/svg" xmlns:xlink="http://www.w3.org/1999/xlink">
	<desc>
			Created with Pixso.
	</desc>
	<defs/>
	<path d="M49.16 24.16L30.1 24.16C29.64 24.16 29.27 24.53 29.27 25C29.27 25.46 29.64 25.83 30.1 25.83L48.33 25.83L48.33 34.16L44.16 34.16L44.16 28.33C44.16 27.87 43.79 27.5 43.33 27.5C42.87 27.5 42.5 27.87 42.5 28.33L42.5 34.16L20 34.16L20 25.83L25 25.83C25.46 25.83 25.83 25.46 25.83 25C25.83 24.53 25.46 24.16 25 24.16L19.16 24.16C18.7 24.16 18.33 24.53 18.33 25L18.33 35C18.33 35.46 18.7 35.83 19.16 35.83L26.66 35.83L26.66 37.5L19.16 37.5C18.7 37.5 18.33 37.87 18.33 38.33L18.33 44.16L15.83 44.16L15.83 43.33C15.83 42.87 15.46 42.5 15 42.5L12.5 42.5L12.5 38.33C12.5 37.87 12.12 37.5 11.66 37.5C11.2 37.5 10.83 37.87 10.83 38.33L10.83 43.33C10.83 43.79 11.2 44.16 11.66 44.16L14.16 44.16L14.16 45.83L5.83 45.83L5.83 44.16L8.33 44.16C8.79 44.16 9.16 43.79 9.16 43.33L9.16 38.33C9.16 37.87 8.79 37.5 8.33 37.5C7.87 37.5 7.5 37.87 7.5 38.33L7.5 42.5L5 42.5C4.53 42.5 4.16 42.87 4.16 43.33L4.16 44.16L0.83 44.16C0.37 44.16 0 44.53 0 45C0 45.46 0.37 45.83 0.83 45.83L4.16 45.83L4.16 46.66C4.16 47.12 4.53 47.5 5 47.5L15 47.5C15.46 47.5 15.83 47.12 15.83 46.66L15.83 45.83L18.33 45.83L18.33 48.33C18.33 48.79 18.7 49.16 19.16 49.16L49.16 49.16C49.62 49.16 50 48.79 50 48.33L50 38.33C50 37.87 49.62 37.5 49.16 37.5L41.66 37.5L41.66 35.83L49.16 35.83C49.62 35.83 50 35.46 50 35L50 25C50 24.53 49.62 24.16 49.16 24.16ZM48.33 47.5L20 47.5L20 39.16L42.5 39.16L42.5 45C42.5 45.46 42.87 45.83 43.33 45.83C43.79 45.83 44.16 45.46 44.16 45L44.16 39.16L48.33 39.16L48.33 47.5ZM40 37.5L28.33 37.5L28.33 35.83L40 35.83L40 37.5Z" fill="#FFBB01" fill-opacity="1.000000" fill-rule="nonzero"/>
	<path d="M24.99 27.5C23.61 27.5 22.49 28.61 22.49 30C22.49 31.38 23.61 32.5 24.99 32.5C26.38 32.5 27.49 31.38 27.49 30C27.49 28.61 26.38 27.5 24.99 27.5ZM24.99 30.83C24.53 30.83 24.16 30.46 24.16 30C24.16 29.53 24.53 29.16 24.99 29.16C25.46 29.16 25.83 29.53 25.83 30C25.83 30.46 25.46 30.83 24.99 30.83Z" fill="#FFBB01" fill-opacity="1.000000" fill-rule="nonzero"/>
	<path d="M30 32.5C30.46 32.5 30.83 32.12 30.83 31.66L30.83 28.33C30.83 27.87 30.46 27.5 30 27.5C29.53 27.5 29.16 27.87 29.16 28.33L29.16 31.66C29.16 32.12 29.53 32.5 30 32.5Z" fill="#FFBB01" fill-opacity="1.000000" fill-rule="nonzero"/>
	<path d="M34.16 31.66L34.16 28.33C34.16 27.87 33.79 27.5 33.33 27.5C32.87 27.5 32.5 27.87 32.5 28.33L32.5 31.66C32.5 32.12 32.87 32.5 33.33 32.5C33.79 32.5 34.16 32.12 34.16 31.66Z" fill="#FFBB01" fill-opacity="1.000000" fill-rule="nonzero"/>
	<path d="M37.49 31.66L37.49 28.33C37.49 27.87 37.12 27.5 36.66 27.5C36.2 27.5 35.83 27.87 35.83 28.33L35.83 31.66C35.83 32.12 36.2 32.5 36.66 32.5C37.12 32.5 37.49 32.12 37.49 31.66Z" fill="#FFBB01" fill-opacity="1.000000" fill-rule="nonzero"/>
	<path d="M40.83 31.66L40.83 28.33C40.83 27.87 40.46 27.5 39.99 27.5C39.53 27.5 39.16 27.87 39.16 28.33L39.16 31.66C39.16 32.12 39.53 32.5 39.99 32.5C40.46 32.5 40.83 32.12 40.83 31.66Z" fill="#FFBB01" fill-opacity="1.000000" fill-rule="nonzero"/>
	<path d="M26.66 42.5C26.2 42.5 25.83 42.87 25.83 43.33C25.83 43.79 25.46 44.16 24.99 44.16C24.53 44.16 24.16 43.79 24.16 43.33C24.16 42.87 24.53 42.5 24.99 42.5C25.46 42.5 25.83 42.12 25.83 41.66C25.83 41.2 25.46 40.83 24.99 40.83C23.61 40.83 22.49 41.95 22.49 43.33C22.49 44.71 23.61 45.83 24.99 45.83C26.38 45.83 27.49 44.71 27.49 43.33C27.49 42.87 27.12 42.5 26.66 42.5Z" fill="#FFBB01" fill-opacity="1.000000" fill-rule="nonzero"/>
	<path d="M30 40.83C29.53 40.83 29.16 41.2 29.16 41.66L29.16 45C29.16 45.46 29.53 45.83 30 45.83C30.46 45.83 30.83 45.46 30.83 45L30.83 41.66C30.83 41.2 30.46 40.83 30 40.83Z" fill="#FFBB01" fill-opacity="1.000000" fill-rule="nonzero"/>
	<path d="M33.33 40.83C32.87 40.83 32.5 41.2 32.5 41.66L32.5 45C32.5 45.46 32.87 45.83 33.33 45.83C33.79 45.83 34.16 45.46 34.16 45L34.16 41.66C34.16 41.2 33.79 40.83 33.33 40.83Z" fill="#FFBB01" fill-opacity="1.000000" fill-rule="nonzero"/>
	<path d="M36.66 40.83C36.2 40.83 35.83 41.2 35.83 41.66L35.83 45C35.83 45.46 36.2 45.83 36.66 45.83C37.12 45.83 37.49 45.46 37.49 45L37.49 41.66C37.49 41.2 37.12 40.83 36.66 40.83Z" fill="#FFBB01" fill-opacity="1.000000" fill-rule="nonzero"/>
	<path d="M39.99 40.83C39.53 40.83 39.16 41.2 39.16 41.66L39.16 45C39.16 45.46 39.53 45.83 39.99 45.83C40.46 45.83 40.83 45.46 40.83 45L40.83 41.66C40.83 41.2 40.46 40.83 39.99 40.83Z" fill="#FFBB01" fill-opacity="1.000000" fill-rule="nonzero"/>
	<path d="M6.31 29.84C6.42 29.89 6.54 29.91 6.66 29.91C7.05 29.91 7.38 29.64 7.46 29.26C7.55 28.88 7.36 28.5 7.01 28.33C3.09 26.53 0.96 22.25 1.87 18.04C2.79 13.83 6.52 10.83 10.83 10.83C11.67 10.83 12.52 10.95 13.33 11.18C13.74 11.3 14.18 11.08 14.34 10.68C16.43 5.24 21.67 1.65 27.5 1.66C34.13 1.69 39.87 6.31 41.33 12.79C41.4 13.12 41.67 13.38 42.01 13.43C45.65 14.01 48.33 17.15 48.33 20.83C48.32 21.07 48.31 21.31 48.28 21.55C48.25 21.78 48.31 22 48.45 22.18C48.59 22.36 48.8 22.47 49.02 22.5C49.24 22.52 49.47 22.45 49.64 22.31C49.81 22.17 49.92 21.96 49.94 21.74C49.97 21.44 49.99 21.13 50 20.83C50.01 16.53 47.03 12.81 42.83 11.89C41 4.91 34.71 0.03 27.5 9.15e-5C21.24 -0.02 15.56 3.67 13.04 9.4C12.31 9.24 11.57 9.16 10.83 9.16C5.74 9.17 1.34 12.71 0.26 17.68C-0.83 22.65 1.69 27.71 6.31 29.84Z" fill="#FFBB01" fill-opacity="1.000000" fill-rule="nonzero"/>
	<path d="M13.33 30.5C13.4 30.52 13.47 30.52 13.54 30.5C14.49 30.26 15.4 29.89 16.25 29.4C16.44 29.28 16.58 29.1 16.63 28.89C16.69 28.67 16.66 28.44 16.54 28.25C16.31 27.86 15.81 27.73 15.41 27.95C14.69 28.37 13.92 28.69 13.12 28.9C12.66 28.95 12.33 29.37 12.39 29.83C12.45 30.29 12.87 30.62 13.33 30.56L13.33 30.5Z" fill="#FFBB01" fill-opacity="1.000000" fill-rule="nonzero"/>
	<path d="M10 35.83C10.46 35.83 10.83 35.46 10.83 35L10.83 21.91L12.64 24.62C12.79 24.85 13.05 24.99 13.33 25C13.49 25 13.65 24.95 13.79 24.85C14.17 24.6 14.27 24.09 14.02 23.7L10.69 18.7C10.69 18.7 10.69 18.7 10.64 18.66C10.49 18.46 10.25 18.35 10 18.35C9.74 18.35 9.5 18.46 9.35 18.66C9.35 18.66 9.35 18.66 9.3 18.7L5.97 23.7C5.77 24.08 5.89 24.55 6.24 24.79C6.6 25.03 7.08 24.96 7.35 24.62L9.16 21.91L9.16 35C9.16 35.46 9.53 35.83 10 35.83Z" fill="#FFBB01" fill-opacity="1.000000" fill-rule="nonzero"/>
	<path d="M31.29 15.14C30.9 14.89 30.39 14.99 30.14 15.37L28.33 18.08L28.33 8.33C28.33 7.87 27.96 7.5 27.49 7.5C27.03 7.5 26.66 7.87 26.66 8.33L26.66 18.08L24.85 15.37C24.7 15.09 24.41 14.92 24.09 14.93C23.78 14.94 23.49 15.13 23.36 15.42C23.23 15.7 23.27 16.04 23.47 16.29L26.8 21.29C26.96 21.52 27.22 21.66 27.49 21.66C27.77 21.66 28.03 21.52 28.19 21.29L31.52 16.29C31.77 15.9 31.67 15.39 31.29 15.14Z" fill="#FFBB01" fill-opacity="1.000000" fill-rule="nonzero"/>
</svg>
