<svg width="30.000034" height="31.906433" viewBox="0 0 30 31.9064" fill="none" xmlns="http://www.w3.org/2000/svg" xmlns:xlink="http://www.w3.org/1999/xlink">
	<desc>
			Created with Pixso.
	</desc>
	<defs/>
	<path d="M15.86 20.2C16.42 20.15 16.92 19.87 17.25 19.42L22.23 12.54C22.38 12.33 22.36 12.03 22.17 11.85C21.99 11.67 21.7 11.64 21.49 11.79L14.6 16.78C14.15 17.1 13.87 17.61 13.83 18.16C13.78 18.71 13.98 19.26 14.38 19.65C14.73 20 15.21 20.2 15.71 20.2C15.76 20.2 15.81 20.2 15.86 20.2ZM14.89 18.24C14.91 18 15.03 17.78 15.23 17.64L19.43 14.6L16.39 18.8C16.25 18.99 16.02 19.12 15.78 19.14C15.54 19.15 15.3 19.07 15.13 18.9C14.96 18.72 14.87 18.49 14.89 18.24Z" fill="#FFBB01" fill-opacity="1.000000" fill-rule="nonzero"/>
	<path d="M27.78 10.4C27.77 10.39 27.77 10.38 27.76 10.36C27.76 10.35 27.75 10.35 27.74 10.34C27.2 9.42 26.57 8.56 25.85 7.78L26.99 6.64L27.74 7.39L30 5.13L27.74 2.88L25.48 5.13L26.24 5.89L25.09 7.03C24.32 6.31 23.46 5.67 22.54 5.13C22.53 5.13 22.52 5.12 22.51 5.11C22.5 5.1 22.49 5.1 22.48 5.1C20.83 4.15 18.98 3.52 17.01 3.29L17.01 2.65L17.81 2.65C18.54 2.65 19.14 2.06 19.14 1.32C19.14 0.59 18.54 0 17.81 0L13.02 0C12.29 0 11.69 0.59 11.69 1.32C11.69 2.06 12.29 2.65 13.02 2.65L13.82 2.65L13.82 3.27C13.25 3.33 12.67 3.42 12.11 3.55C11.82 3.62 11.64 3.9 11.71 4.19C11.77 4.48 12.06 4.66 12.34 4.59C12.83 4.48 13.33 4.39 13.82 4.34L14.39 4.29C14.57 4.28 14.73 4.27 14.88 4.26L14.88 5.31C14.88 5.61 15.12 5.84 15.42 5.84C15.71 5.84 15.95 5.61 15.95 5.31L15.95 4.27C17.95 4.36 19.83 4.89 21.51 5.78L20.98 6.69C20.84 6.94 20.92 7.27 21.18 7.41C21.26 7.46 21.35 7.48 21.44 7.48C21.63 7.48 21.81 7.39 21.91 7.22L22.43 6.31C24.09 7.37 25.51 8.78 26.56 10.44L25.66 10.97C25.4 11.11 25.31 11.44 25.46 11.69C25.56 11.86 25.74 11.96 25.92 11.96C26.01 11.96 26.1 11.94 26.19 11.89L27.1 11.36C27.99 13.06 28.53 14.98 28.61 17.01L27.56 17.01C27.27 17.01 27.03 17.25 27.03 17.54C27.03 17.84 27.27 18.07 27.56 18.07L28.61 18.07C28.53 20.11 27.99 22.02 27.1 23.72L26.19 23.2C25.93 23.05 25.61 23.14 25.46 23.39C25.31 23.65 25.4 23.97 25.66 24.12L26.56 24.64C25.51 26.31 24.09 27.72 22.43 28.77L21.91 27.87C21.76 27.61 21.43 27.53 21.18 27.67C20.93 27.82 20.84 28.15 20.99 28.4L21.51 29.31C19.83 30.19 17.95 30.73 15.95 30.82L15.95 29.77C15.95 29.48 15.71 29.24 15.42 29.24C15.12 29.24 14.89 29.48 14.89 29.77L14.89 30.83C14.04 30.8 13.18 30.69 12.35 30.5C12.06 30.43 11.77 30.61 11.71 30.9C11.64 31.18 11.82 31.47 12.11 31.53C13.17 31.78 14.25 31.9 15.33 31.9C15.36 31.9 15.38 31.9 15.41 31.9C15.41 31.9 15.41 31.9 15.42 31.9C15.42 31.9 15.42 31.9 15.43 31.9C17.98 31.88 20.38 31.19 22.46 30C22.47 29.99 22.49 29.99 22.51 29.98C22.52 29.97 22.52 29.96 22.53 29.95C24.68 28.7 26.48 26.91 27.73 24.76C27.74 24.75 27.75 24.74 27.76 24.72C27.77 24.71 27.77 24.7 27.77 24.69C28.99 22.58 29.69 20.14 29.69 17.54C29.69 14.94 28.99 12.5 27.78 10.4ZM27.74 4.38L28.49 5.13L27.74 5.89L26.99 5.13L27.74 4.38ZM14.88 3.2L14.88 1.59L13.02 1.59C12.88 1.59 12.76 1.47 12.76 1.32C12.76 1.18 12.88 1.06 13.02 1.06L17.81 1.06C17.96 1.06 18.08 1.18 18.08 1.32C18.08 1.47 17.96 1.59 17.81 1.59L15.95 1.59L15.95 3.2C15.76 3.19 15.59 3.19 15.42 3.19C15.4 3.19 15.38 3.19 15.37 3.19C15.36 3.19 15.34 3.19 15.33 3.19C15.24 3.19 15.16 3.19 15.07 3.19C15.01 3.19 14.95 3.19 14.88 3.2Z" fill="#FFBB01" fill-opacity="1.000000" fill-rule="nonzero"/>
	<path d="M10.63 7.44L7.97 7.44C7.68 7.44 7.44 7.68 7.44 7.97C7.44 8.27 7.68 8.5 7.97 8.5L10.63 8.5C10.92 8.5 11.16 8.27 11.16 7.97C11.16 7.68 10.92 7.44 10.63 7.44Z" fill="#FFBB01" fill-opacity="1.000000" fill-rule="nonzero"/>
	<path d="M10.63 11.16L5.31 11.16C5.02 11.16 4.78 11.4 4.78 11.69C4.78 11.99 5.02 12.23 5.31 12.23L10.63 12.23C10.92 12.23 11.16 11.99 11.16 11.69C11.16 11.4 10.92 11.16 10.63 11.16Z" fill="#FFBB01" fill-opacity="1.000000" fill-rule="nonzero"/>
	<path d="M10.63 14.88L2.65 14.88C2.36 14.88 2.12 15.12 2.12 15.42C2.12 15.71 2.36 15.95 2.65 15.95L10.63 15.95C10.92 15.95 11.16 15.71 11.16 15.42C11.16 15.12 10.92 14.88 10.63 14.88Z" fill="#FFBB01" fill-opacity="1.000000" fill-rule="nonzero"/>
	<path d="M10.63 18.61L0.53 18.61C0.23 18.61 0 18.84 0 19.14C0 19.43 0.23 19.67 0.53 19.67L10.63 19.67C10.92 19.67 11.16 19.43 11.16 19.14C11.16 18.84 10.92 18.61 10.63 18.61Z" fill="#FFBB01" fill-opacity="1.000000" fill-rule="nonzero"/>
	<path d="M10.63 22.33L3.72 22.33C3.42 22.33 3.19 22.57 3.19 22.86C3.19 23.16 3.42 23.39 3.72 23.39L10.63 23.39C10.92 23.39 11.16 23.16 11.16 22.86C11.16 22.57 10.92 22.33 10.63 22.33Z" fill="#FFBB01" fill-opacity="1.000000" fill-rule="nonzero"/>
	<path d="M10.63 26.05L6.91 26.05C6.61 26.05 6.38 26.29 6.38 26.58C6.38 26.88 6.61 27.12 6.91 27.12L10.63 27.12C10.92 27.12 11.16 26.88 11.16 26.58C11.16 26.29 10.92 26.05 10.63 26.05Z" fill="#FFBB01" fill-opacity="1.000000" fill-rule="nonzero"/>
</svg>
