<svg width="17.272705" height="13.730469" viewBox="0 0 17.2727 13.7305" fill="none" xmlns="http://www.w3.org/2000/svg" xmlns:xlink="http://www.w3.org/1999/xlink">
	<desc>
			Created with Pixso.
	</desc>
	<defs/>
	<path id="twitter" d="M17.27 1.83C16.18 1.88 16.2 1.87 16.08 1.88L16.73 0.1C16.73 0.1 14.72 0.82 14.21 0.94C12.87 -0.22 10.88 -0.27 9.46 0.57C8.3 1.27 7.67 2.46 7.88 3.86C5.62 3.55 3.71 2.51 2.2 0.75L1.73 0.2L1.37 0.83C0.92 1.63 0.77 2.55 0.95 3.41C1.02 3.77 1.15 4.11 1.32 4.42L0.91 4.27L0.86 4.93C0.81 5.61 1.04 6.39 1.48 7.04C1.6 7.22 1.76 7.42 1.96 7.61L1.75 7.58L2.01 8.34C2.35 9.34 3.05 10.11 3.96 10.54C3.05 10.92 2.31 11.16 1.1 11.54L0 11.9L1.02 12.44C1.41 12.65 2.79 13.34 4.15 13.55C7.18 14.01 10.59 13.63 12.88 11.63C14.82 9.94 15.45 7.53 15.32 5.03C15.3 4.65 15.41 4.29 15.62 4.01C16.05 3.45 17.27 1.83 17.27 1.83ZM14.81 3.42C14.46 3.88 14.28 4.47 14.31 5.08C14.44 7.6 13.73 9.56 12.21 10.9C10.42 12.46 7.54 13.07 4.31 12.58C3.72 12.49 3.12 12.29 2.61 12.09C3.63 11.75 4.41 11.45 5.68 10.87L7.45 10.05L5.5 9.93C4.56 9.87 3.78 9.43 3.3 8.72C3.56 8.71 3.8 8.67 4.05 8.6L5.91 8.1L4.03 7.65C3.12 7.43 2.6 6.9 2.32 6.5C2.14 6.23 2.02 5.96 1.95 5.7C2.14 5.75 2.36 5.79 2.72 5.82L4.45 5.99L3.08 4.94C2.08 4.19 1.69 3.06 1.98 1.98C5.07 5.1 8.71 4.86 9.07 4.95C8.99 4.19 8.99 4.18 8.97 4.11C8.5 2.5 9.53 1.69 9.99 1.41C10.96 0.83 12.49 0.75 13.56 1.7C13.79 1.9 14.1 1.98 14.39 1.91C14.65 1.85 14.86 1.78 15.07 1.71L14.64 2.92L15.19 2.92C15.09 3.06 14.96 3.22 14.81 3.42Z" fill="#FFFFFF" fill-opacity="1.000000" fill-rule="nonzero"/>
</svg>
