<svg width="15.000000" height="17.634521" viewBox="0 0 15 17.6345" fill="none" xmlns="http://www.w3.org/2000/svg" xmlns:xlink="http://www.w3.org/1999/xlink">
	<desc>
			Created with Pixso.
	</desc>
	<defs/>
	<path d="M7.43 9.5C7.45 9.5 7.47 9.5 7.49 9.5C7.5 9.5 7.5 9.5 7.51 9.5C7.52 9.5 7.54 9.5 7.55 9.5C8.62 9.48 9.48 9.1 10.12 8.38C11.53 6.8 11.29 4.08 11.27 3.82C11.18 1.88 10.26 0.94 9.5 0.51C8.93 0.18 8.27 0.01 7.53 0L7.51 0C7.5 0 7.5 0 7.49 0L7.47 0C7.07 0 6.27 0.06 5.51 0.5C4.74 0.93 3.8 1.86 3.71 3.82C3.69 4.08 3.45 6.8 4.86 8.38C5.5 9.1 6.36 9.48 7.43 9.5ZM4.69 3.91C4.69 3.9 4.69 3.89 4.69 3.88C4.81 1.27 6.67 0.98 7.47 0.98L7.48 0.98C7.49 0.98 7.5 0.98 7.51 0.98C8.5 1.01 10.17 1.41 10.29 3.88C10.29 3.9 10.29 3.91 10.29 3.91C10.29 3.94 10.55 6.42 9.39 7.73C8.93 8.25 8.31 8.5 7.51 8.51C7.5 8.51 7.5 8.51 7.49 8.51C7.48 8.51 7.48 8.51 7.47 8.51C6.67 8.5 6.05 8.25 5.59 7.73C4.44 6.43 4.68 3.94 4.69 3.91Z" fill="#949494" fill-opacity="1.000000" fill-rule="nonzero"/>
	<path d="M14.99 14C14.99 14 14.99 14 14.99 13.99C14.99 13.96 14.99 13.93 14.99 13.9C14.97 13.18 14.92 11.49 13.34 10.95C13.33 10.94 13.31 10.94 13.3 10.94C11.65 10.52 10.28 9.57 10.27 9.56C10.05 9.4 9.74 9.45 9.58 9.68C9.42 9.9 9.48 10.21 9.7 10.36C9.76 10.41 11.22 11.42 13.04 11.89C13.89 12.19 13.98 13.1 14.01 13.93C14.01 13.96 14.01 13.99 14.01 14.02C14.02 14.35 13.99 14.86 13.93 15.15C13.34 15.49 11.02 16.65 7.5 16.65C3.98 16.65 1.65 15.48 1.06 15.15C1 14.85 0.97 14.35 0.98 14.02C0.98 13.99 0.98 13.96 0.98 13.93C1.01 13.09 1.1 12.18 1.95 11.88C3.77 11.41 5.23 10.4 5.29 10.36C5.51 10.2 5.57 9.9 5.41 9.67C5.25 9.45 4.94 9.39 4.72 9.55C4.71 9.56 3.34 10.51 1.69 10.93C1.68 10.94 1.66 10.94 1.65 10.94C0.07 11.49 0.02 13.18 0 13.9C0 13.93 0 13.96 0 13.99C0 13.99 0 14 0 14C-0.01 14.19 -0.01 15.16 0.18 15.65C0.22 15.75 0.28 15.83 0.37 15.88C0.48 15.96 3.11 17.63 7.5 17.63C11.89 17.63 14.52 15.95 14.63 15.88C14.71 15.83 14.78 15.75 14.82 15.65C15 15.17 15 14.19 14.99 14Z" fill="#949494" fill-opacity="1.000000" fill-rule="nonzero"/>
</svg>
